<svg data-v-0dd9719b="" version="1.0" xmlns="http://www.w3.org/2000/svg"
     width="100%" height="100%" viewBox="0 0 340.000000 250.000000"
     preserveAspectRatio="xMidYMid meet" color-interpolation-filters="sRGB" style="margin: auto;">
    <rect  x="0" y="0" width="100%" height="100%" fill="#feffff" fill-opacity="0"
          class="background"></rect>
    <rect  x="0" y="0" width="100%" height="100%" fill="url(#watermark)" fill-opacity="1"
          class="watermarklayer"></rect>
    <g  fill="#333" class="iconlinesvg-g iconlinesvg"
       transform="translate(82.2670669555664,90.93706130981445)">
        <g class="tp-name" transform="matrix(1,0,0,1,0,0)" opacity="1">
            <g transform="translate(0, 0)">
                <g>
                    <g class="imagesvg">
                        <g>
                            <rect fill="#333" fill-opacity="0" stroke-width="2" x="0" y="0"
                                  width="52.839849164856034" height="52.839849164856034"
                                  class="image-rect"></rect>
                            <svg x="0" y="0" width="52.839849164856034" height="52.839849164856034"
                                 class="image-svg-svg primary"
                                 style="overflow: visible;">
                                <svg xmlns="http://www.w3.org/2000/svg"
                                     viewBox="0 0 74.45000457763672 74.44999694824219"><title>资源 34</title>
                                    <path d="M25.72 51.44h48.73V0H25.72a25.72 25.72 0 0 0 0 51.44z"
                                          fill="#9ac74e" opacity=".8"></path>
                                    <path d="M48.73 23H0v51.45h48.73a25.72 25.72 0 1 0 0-51.44z" fill="#d3e4b0"
                                          opacity=".8"></path>
                                </svg>
                            </svg> <!----></g>
                    </g>
                </g>
            </g>
            <g transform="translate(56, 4.403323019928017)">
                <g  fill="#333" transform="scale(1)">
                    <path d="M19.98 0.59L19.98 0.59Q11.69 0.59 7.10-3.82Q2.52-8.23 2.52-16.38L2.52-16.38Q2.52-24.79 6.77-29.28Q11.02-33.78 18.90-33.78L18.90-33.78Q26.40-33.78 30.48-29.87Q34.57-25.96 34.57-18.60L34.57-18.60L34.57-13.51L14.09-13.51Q14.21-10.72 16.13-9.14Q18.05-7.56 21.36-7.56L21.36-7.56Q24.38-7.56 26.91-8.13Q29.44-8.70 32.40-10.08L32.40-10.08L32.40-1.85Q29.71-0.47 26.84 0.06Q23.96 0.59 19.98 0.59ZM19.31-25.99L19.31-25.99Q17.29-25.99 15.92-24.71Q14.56-23.44 14.33-20.71L14.33-20.71L24.17-20.71Q24.11-23.12 22.81-24.55Q21.50-25.99 19.31-25.99Z"
                          transform="translate(-2.51953125, 43.447265625)"></path>
                </g>
            </g>
            <g transform="translate(92, 4.403323019928017)">
                <g  fill="#333" transform="scale(1)">
                    <path d="M19.98 0.59L19.98 0.59Q11.69 0.59 7.10-3.82Q2.52-8.23 2.52-16.38L2.52-16.38Q2.52-24.79 6.77-29.28Q11.02-33.78 18.90-33.78L18.90-33.78Q26.40-33.78 30.48-29.87Q34.57-25.96 34.57-18.60L34.57-18.60L34.57-13.51L14.09-13.51Q14.21-10.72 16.13-9.14Q18.05-7.56 21.36-7.56L21.36-7.56Q24.38-7.56 26.91-8.13Q29.44-8.70 32.40-10.08L32.40-10.08L32.40-1.85Q29.71-0.47 26.84 0.06Q23.96 0.59 19.98 0.59ZM19.31-25.99L19.31-25.99Q17.29-25.99 15.92-24.71Q14.56-23.44 14.33-20.71L14.33-20.71L24.17-20.71Q24.11-23.12 22.81-24.55Q21.50-25.99 19.31-25.99Z"
                          transform="translate(-2.51953125, 43.447265625)"></path>
                </g>
            </g>
            <g transform="translate(128, 4.403323019928017)">
                <g  fill="#333" transform="scale(1)">
                    <path d="M16.26 0L4.63 0L4.63-42.83L16.26-42.83L16.26 0Z"
                          transform="translate(-4.62890625, 43.447265625)"></path>
                </g>
            </g>
            <g transform="translate(143, 4.403323019928017)">
                <g  fill="#333" transform="scale(1)">
                    <path d="M23.53-33.37L23.53 0L11.95 0L11.95-33.37L1.49-33.37L1.49-42.83L33.96-42.83L33.96-33.37L23.53-33.37Z"
                          transform="translate(-1.494140625, 43.447265625)"></path>
                </g>
            </g>
        </g>
        <g  class="tp-slogan" fill="#333"
           transform="matrix(1,0,0,1,8.117935180664062,58.839847564697266)" opacity="1"><!----> <!---->
            <g transform="scale(1, 1)">
                <g transform="scale(1)">
                    <path d="M0.96-7.00L0.96 0L1.85 0L1.85-7.00ZM4.63-6.25L4.63 0L5.53 0L5.53-6.25L7.64-6.25L7.64-7.00L2.52-7.00L2.52-6.25ZM9.87-7.00L9.87 0L10.70 0L10.70-3.85C10.70-4.17 10.68-4.51 10.65-4.89C10.62-5.26 10.60-5.61 10.58-5.92L10.62-5.92L11.18-4.36L12.53-0.70L13.03-0.70L14.38-4.36L14.94-5.92L14.99-5.92C14.96-5.61 14.93-5.26 14.91-4.89C14.88-4.51 14.87-4.17 14.87-3.85L14.87 0L15.71 0L15.71-7.00L14.66-7.00L13.32-3.24L12.83-1.81L12.79-1.81L12.27-3.24L10.92-7.00ZM17.04-7.00L17.04 0L21.18 0L21.18-0.76L17.93-0.76L17.93-3.30L20.58-3.30L20.58-4.05L17.93-4.05L17.93-6.25L21.08-6.25L21.08-7.00ZM22.08-7.00L22.08 0L26.22 0L26.22-0.76L22.96-0.76L22.96-3.30L25.62-3.30L25.62-4.05L22.96-4.05L22.96-6.25L26.11-6.25L26.11-7.00ZM28.56-6.25L28.56 0L29.46 0L29.46-6.25L31.57-6.25L31.57-7.00L26.45-7.00L26.45-6.25ZM32.21-7.00L32.21-2.89C32.21-2.33 32.27-1.86 32.40-1.47C32.53-1.09 32.70-0.78 32.93-0.54C33.15-0.30 33.42-0.13 33.73-0.03C34.04 0.08 34.37 0.13 34.73 0.13C35.08 0.13 35.41 0.08 35.72-0.03C36.03-0.13 36.29-0.30 36.51-0.54C36.74-0.78 36.91-1.09 37.04-1.47C37.17-1.86 37.23-2.33 37.23-2.89L37.23-7.00L36.38-7.00L36.38-2.87C36.38-2.45 36.34-2.10 36.25-1.81C36.17-1.53 36.05-1.30 35.90-1.13C35.75-0.96 35.58-0.84 35.38-0.76C35.18-0.69 34.96-0.65 34.73-0.65C34.50-0.65 34.29-0.69 34.09-0.76C33.89-0.84 33.72-0.96 33.57-1.13C33.42-1.30 33.31-1.53 33.22-1.81C33.14-2.10 33.09-2.45 33.09-2.87L33.09-7.00ZM38.53-7.00L38.53 0L39.42 0L39.42-2.77L40.68-2.77C41.06-2.77 41.41-2.82 41.73-2.91C42.05-3.00 42.32-3.13 42.55-3.31C42.77-3.49 42.95-3.71 43.07-3.98C43.20-4.25 43.26-4.57 43.26-4.94C43.26-5.32 43.20-5.65 43.07-5.91C42.95-6.17 42.78-6.39 42.55-6.55C42.33-6.71 42.06-6.82 41.74-6.89C41.42-6.96 41.06-7.00 40.68-7.00ZM40.57-3.50L39.42-3.50L39.42-6.28L40.57-6.28C41.18-6.28 41.63-6.19 41.93-5.99C42.23-5.80 42.38-5.45 42.38-4.94C42.38-4.44 42.23-4.08 41.93-3.85C41.64-3.62 41.18-3.50 40.57-3.50ZM45.66-7.00L45.66 0L46.54 0L46.54-7.00ZM47.87-7.00L47.87 0L48.72 0L48.72-3.66C48.72-4.03 48.70-4.40 48.68-4.76C48.66-5.13 48.63-5.49 48.60-5.85L48.64-5.85L49.40-4.41L51.94 0L52.86 0L52.86-7.00L52.01-7.00L52.01-3.38C52.01-3.01 52.03-2.64 52.05-2.26C52.08-1.88 52.10-1.51 52.12-1.15L52.08-1.15L51.32-2.60L48.79-7.00ZM55.76-7.00L55.76 0L56.64 0L56.64-2.22L57.85-3.64L59.94 0L60.93 0L58.40-4.33L60.59-7.00L59.59-7.00L56.67-3.49L56.64-3.49L56.64-7.00ZM63.69 0.13C64.13 0.13 64.54 0.04 64.90-0.13C65.27-0.30 65.59-0.54 65.85-0.86C66.12-1.18 66.33-1.56 66.47-2.01C66.62-2.46 66.69-2.97 66.69-3.53C66.69-4.09 66.62-4.59 66.47-5.03C66.33-5.48 66.12-5.85 65.85-6.16C65.59-6.47 65.27-6.71 64.90-6.88C64.54-7.04 64.13-7.13 63.69-7.13C63.25-7.13 62.85-7.05 62.48-6.88C62.11-6.72 61.80-6.48 61.54-6.17C61.27-5.86 61.07-5.49 60.92-5.04C60.78-4.60 60.70-4.09 60.70-3.53C60.70-2.97 60.78-2.46 60.92-2.01C61.07-1.56 61.27-1.18 61.54-0.86C61.80-0.54 62.11-0.30 62.48-0.13C62.85 0.04 63.25 0.13 63.69 0.13ZM63.69-0.65C63.38-0.65 63.10-0.72 62.84-0.85C62.59-0.99 62.37-1.18 62.19-1.44C62.01-1.69 61.87-1.99 61.77-2.34C61.67-2.69 61.62-3.09 61.62-3.53C61.62-3.97 61.67-4.36 61.77-4.71C61.87-5.05 62.01-5.35 62.19-5.59C62.37-5.83 62.59-6.02 62.84-6.15C63.10-6.28 63.38-6.35 63.69-6.35C64.00-6.35 64.29-6.28 64.54-6.15C64.79-6.02 65.01-5.83 65.19-5.59C65.37-5.35 65.51-5.05 65.61-4.71C65.71-4.36 65.76-3.97 65.76-3.53C65.76-3.09 65.71-2.69 65.61-2.34C65.51-1.99 65.37-1.69 65.19-1.44C65.01-1.18 64.79-0.99 64.54-0.85C64.29-0.72 64.00-0.65 63.69-0.65ZM67.61-7.00L67.61 0L68.45 0L68.45-3.66C68.45-4.03 68.44-4.40 68.41-4.76C68.39-5.13 68.36-5.49 68.33-5.85L68.37-5.85L69.13-4.41L71.67 0L72.59 0L72.59-7.00L71.75-7.00L71.75-3.38C71.75-3.01 71.76-2.64 71.78-2.26C71.81-1.88 71.83-1.51 71.85-1.15L71.81-1.15L71.05-2.60L68.52-7.00ZM73.94-1.53L73.41-0.91C73.71-0.59 74.08-0.33 74.50-0.15C74.92 0.04 75.37 0.13 75.86 0.13C76.23 0.13 76.56 0.08 76.85-0.03C77.15-0.13 77.40-0.27 77.60-0.45C77.81-0.63 77.97-0.85 78.08-1.09C78.19-1.33 78.24-1.59 78.24-1.87C78.24-2.12 78.20-2.35 78.13-2.54C78.06-2.74 77.95-2.91 77.83-3.06C77.70-3.20 77.54-3.33 77.37-3.44C77.19-3.55 77.00-3.65 76.80-3.73L75.81-4.16C75.67-4.22 75.53-4.28 75.39-4.35C75.26-4.42 75.13-4.49 75.02-4.58C74.91-4.67 74.81-4.78 74.75-4.89C74.68-5.01 74.65-5.15 74.65-5.32C74.65-5.64 74.76-5.90 75.00-6.08C75.24-6.26 75.56-6.35 75.95-6.35C76.27-6.35 76.57-6.29 76.83-6.17C77.09-6.06 77.32-5.89 77.54-5.69L78.02-6.26C77.77-6.52 77.47-6.73 77.11-6.89C76.75-7.05 76.37-7.13 75.95-7.13C75.63-7.13 75.33-7.08 75.07-6.99C74.80-6.90 74.57-6.77 74.37-6.60C74.18-6.43 74.03-6.24 73.91-6.01C73.80-5.78 73.75-5.53 73.75-5.27C73.75-5.02 73.79-4.79 73.88-4.59C73.96-4.40 74.07-4.23 74.21-4.09C74.34-3.94 74.50-3.82 74.67-3.72C74.84-3.62 75.01-3.54 75.17-3.47L76.17-3.03C76.34-2.95 76.49-2.88 76.63-2.81C76.77-2.74 76.90-2.66 77.00-2.57C77.10-2.48 77.18-2.37 77.24-2.25C77.30-2.12 77.33-1.97 77.33-1.79C77.33-1.45 77.21-1.18 76.95-0.97C76.69-0.76 76.34-0.65 75.87-0.65C75.51-0.65 75.16-0.73 74.82-0.89C74.48-1.05 74.19-1.26 73.94-1.53ZM80.27-6.25L80.27 0L81.16 0L81.16-6.25L83.28-6.25L83.28-7.00L78.15-7.00L78.15-6.25ZM86.50-2.85L84.39-2.85L84.72-3.92C84.85-4.31 84.97-4.70 85.09-5.08C85.20-5.47 85.31-5.87 85.42-6.27L85.46-6.27C85.57-5.87 85.69-5.47 85.80-5.08C85.92-4.70 86.04-4.31 86.17-3.92ZM86.72-2.13L87.38 0L88.33 0L85.96-7.00L84.96-7.00L82.59 0L83.50 0L84.17-2.13ZM88.73-7.00L88.73 0L89.58 0L89.58-3.66C89.58-4.03 89.57-4.40 89.54-4.76C89.52-5.13 89.49-5.49 89.46-5.85L89.50-5.85L90.26-4.41L92.80 0L93.72 0L93.72-7.00L92.87-7.00L92.87-3.38C92.87-3.01 92.89-2.64 92.91-2.26C92.94-1.88 92.96-1.51 92.98-1.15L92.94-1.15L92.18-2.60L89.65-7.00ZM94.57-0.53L94.57 0L99.39 0L99.39-0.76L95.67-0.76L99.36-6.48L99.36-7.00L94.90-7.00L94.90-6.25L98.25-6.25ZM102.21-7.58L99.36 1.71L100.00 1.71L102.85-7.58ZM103.36-7.00L103.36 0L104.24 0L104.24-2.22L105.45-3.64L107.54 0L108.53 0L106.00-4.33L108.19-7.00L107.19-7.00L104.27-3.49L104.24-3.49L104.24-7.00ZM109.83-3.68L109.83-6.28L111.01-6.28C111.55-6.28 111.97-6.19 112.26-6.01C112.56-5.82 112.70-5.50 112.70-5.04C112.70-4.58 112.56-4.24 112.26-4.02C111.97-3.79 111.55-3.68 111.01-3.68ZM112.79 0L113.79 0L112.02-3.05C112.50-3.17 112.88-3.40 113.16-3.72C113.45-4.05 113.59-4.49 113.59-5.04C113.59-5.40 113.53-5.71 113.41-5.95C113.29-6.20 113.12-6.41 112.90-6.56C112.68-6.72 112.42-6.83 112.12-6.90C111.82-6.97 111.49-7.00 111.13-7.00L108.95-7.00L108.95 0L109.83 0L109.83-2.96L111.10-2.96ZM114.56-7.00L114.56 0L118.70 0L118.70-0.76L115.44-0.76L115.44-3.30L118.10-3.30L118.10-4.05L115.44-4.05L115.44-6.25L118.59-6.25L118.59-7.00ZM119.56-7.00L119.56-2.89C119.56-2.33 119.62-1.86 119.75-1.47C119.88-1.09 120.05-0.78 120.28-0.54C120.50-0.30 120.77-0.13 121.08-0.03C121.39 0.08 121.72 0.13 122.08 0.13C122.43 0.13 122.76 0.08 123.07-0.03C123.37-0.13 123.64-0.30 123.86-0.54C124.09-0.78 124.26-1.09 124.39-1.47C124.52-1.86 124.58-2.33 124.58-2.89L124.58-7.00L123.73-7.00L123.73-2.87C123.73-2.45 123.69-2.10 123.60-1.81C123.52-1.53 123.40-1.30 123.25-1.13C123.10-0.96 122.93-0.84 122.73-0.76C122.53-0.69 122.31-0.65 122.08-0.65C121.85-0.65 121.64-0.69 121.44-0.76C121.24-0.84 121.06-0.96 120.92-1.13C120.77-1.30 120.66-1.53 120.57-1.81C120.49-2.10 120.44-2.45 120.44-2.87L120.44-7.00ZM125.40-0.53L125.40 0L130.23 0L130.23-0.76L126.50-0.76L130.19-6.48L130.19-7.00L125.73-7.00L125.73-6.25L129.08-6.25ZM131.05-7.00L131.05 0L134.99 0L134.99-0.76L131.93-0.76L131.93-7.00ZM135.64-7.00L135.64 0L136.53 0L136.53-7.00ZM137.86-7.00L137.86 0L138.70 0L138.70-3.66C138.70-4.03 138.69-4.40 138.67-4.76C138.64-5.13 138.61-5.49 138.59-5.85L138.63-5.85L139.39-4.41L141.93 0L142.84 0L142.84-7.00L142.00-7.00L142.00-3.38C142.00-3.01 142.01-2.64 142.04-2.26C142.06-1.88 142.09-1.51 142.11-1.15L142.06-1.15L141.31-2.60L138.78-7.00ZM143.77-3.50C143.77-2.93 143.85-2.42 144.00-1.97C144.16-1.52 144.38-1.14 144.65-0.83C144.93-0.52 145.26-0.28 145.65-0.12C146.03 0.05 146.45 0.13 146.92 0.13C147.39 0.13 147.81 0.05 148.18-0.10C148.55-0.25 148.86-0.45 149.08-0.68L149.08-3.63L146.79-3.63L146.79-2.89L148.27-2.89L148.27-1.07C148.13-0.94 147.95-0.84 147.72-0.76C147.50-0.69 147.26-0.65 147.01-0.65C146.64-0.65 146.30-0.72 146.02-0.85C145.73-0.99 145.49-1.18 145.29-1.43C145.09-1.68 144.94-1.98 144.84-2.33C144.74-2.68 144.69-3.08 144.69-3.52C144.69-3.96 144.74-4.35 144.85-4.70C144.96-5.04 145.12-5.34 145.32-5.59C145.52-5.83 145.76-6.02 146.04-6.15C146.33-6.28 146.65-6.35 147.00-6.35C147.36-6.35 147.65-6.29 147.88-6.16C148.11-6.04 148.32-5.88 148.50-5.70L149.00-6.26C148.79-6.48 148.53-6.67 148.20-6.86C147.88-7.04 147.48-7.13 146.99-7.13C146.52-7.13 146.09-7.04 145.70-6.88C145.31-6.71 144.97-6.47 144.68-6.16C144.39-5.84 144.17-5.46 144.01-5.02C143.85-4.57 143.77-4.06 143.77-3.50ZM150.17-7.00L150.17 0L154.31 0L154.31-0.76L151.05-0.76L151.05-3.30L153.71-3.30L153.71-4.05L151.05-4.05L151.05-6.25L154.20-6.25L154.20-7.00ZM155.20-7.00L155.20 0L156.05 0L156.05-3.66C156.05-4.03 156.03-4.40 156.01-4.76C155.98-5.13 155.96-5.49 155.93-5.85L155.97-5.85L156.73-4.41L159.27 0L160.19 0L160.19-7.00L159.34-7.00L159.34-3.38C159.34-3.01 159.36-2.64 159.38-2.26C159.41-1.88 159.43-1.51 159.45-1.15L159.41-1.15L158.65-2.60L156.12-7.00Z"
                          transform="translate(-0.9603414547394626, 7.576027031833538)"></path>
                </g>
            </g>
        </g>
    </g>
    <defs ></defs>
</svg>
